<?xml version="1.0" encoding="UTF-8"?>
<svg xmlns="http://www.w3.org/2000/svg"
     xmlns:xlink="http://www.w3.org/1999/xlink"
     version="1.2"
     width="100mm" height="100mm" viewBox="0 0 100 100"
     stroke="none"
     fill="#000000"
     stroke-width="0.3"
     font-size="3.88"
>
<defs>
  <marker id="arrow" markerWidth="15" markerHeight="7" refX="5" refY="3.5" orient="auto" markerUnits="strokeWidth">
    <path d="M0,0 L15,3.5 L0,7 z" stroke="context-stroke" fill="context-stroke"/>
  </marker>
</defs>
<g fill="#000000" fill-opacity="0.000" id="img-fd6566f5-1">
  <g transform="translate(50,50)">
    <path d="M-50,-50 L50,-50 50,50 -50,50  z" class="primitive"/>
  </g>
</g>
<g stroke-width="1.22" stroke="#D3D3D3" id="img-fd6566f5-2">
</g>
<g stroke-width="1.22" stroke="#D3D3D3" id="img-fd6566f5-3">
  <g transform="translate(72.42,58.37)">
    <path fill="none" d="M15.2,4.92 L-15.2,-4.92 " class="primitive"/>
  </g>
  <g transform="translate(65.82,68.4)">
    <path fill="none" d="M21.64,-3.19 L-21.64,3.19 " class="primitive"/>
  </g>
  <g transform="translate(43.8,60.19)">
    <path fill="none" d="M3.44,-5.62 L-3.44,5.62 " class="primitive"/>
  </g>
  <g transform="translate(46.28,41.31)">
    <path fill="none" d="M1.85,5.59 L-1.85,-5.59 " class="primitive"/>
  </g>
  <g transform="translate(23.83,81.12)">
    <path fill="none" d="M8.74,-5.95 L-8.74,5.95 " class="primitive"/>
  </g>
  <g transform="translate(39.42,20.02)">
    <path fill="none" d="M1.2,3.88 L-1.2,-3.88 " class="primitive"/>
  </g>
</g>
<g fill="#D3D3D3" id="img-fd6566f5-4">
</g>
<g fill="#D3D3D3" id="img-fd6566f5-5">
  <g transform="translate(55.99,53.05)">
    <path d="M0.8,1.76 L-2.48,-0.8 1.68,-0.95  z" class="primitive"/>
  </g>
  <g transform="translate(42.88,71.77)">
    <path d="M1.5,1.22 L-2.58,0.38 1.08,-1.6  z" class="primitive"/>
  </g>
  <g transform="translate(39.67,66.92)">
    <path d="M1.9,-0.37 L-1.36,2.23 -0.53,-1.86  z" class="primitive"/>
  </g>
  <g transform="translate(44.02,34.47)">
    <path d="M-0.94,1.69 L-0.82,-2.48 1.76,0.79  z" class="primitive"/>
  </g>
  <g transform="translate(14.01,87.81)">
    <path d="M1.88,0.44 L-2.16,1.47 0.28,-1.91  z" class="primitive"/>
  </g>
  <g transform="translate(37.83,14.89)">
    <path d="M-0.98,1.67 L-0.77,-2.49 1.75,0.83  z" class="primitive"/>
  </g>
</g>
<g font-size="4" fill="#000000" id="img-fd6566f5-6">
</g>
<g stroke-width="0" stroke="#000000" stroke-opacity="0.000" fill="#40E0D0" id="img-fd6566f5-7">
  <g transform="translate(91.67,64.59)">
    <circle cx="0" cy="0" r="4.08" class="primitive"/>
  </g>
  <g transform="translate(49.46,50.94)">
    <circle cx="0" cy="0" r="4.08" class="primitive"/>
  </g>
  <g transform="translate(36.09,72.77)">
    <circle cx="0" cy="0" r="4.08" class="primitive"/>
  </g>
  <g transform="translate(41.87,27.96)">
    <circle cx="0" cy="0" r="4.08" class="primitive"/>
  </g>
  <g transform="translate(8.33,91.67)">
    <circle cx="0" cy="0" r="4.08" class="primitive"/>
  </g>
  <g transform="translate(35.8,8.33)">
    <circle cx="0" cy="0" r="4.08" class="primitive"/>
  </g>
</g>
<g font-family="Helvetica" font-size="4" fill="#000000" id="img-fd6566f5-8">
  <g transform="translate(91.67,64.59)">
    <g class="primitive">
      <text text-anchor="middle" dy="0.35em">A</text>
    </g>
  </g>
  <g transform="translate(49.46,50.94)">
    <g class="primitive">
      <text text-anchor="middle" dy="0.35em">B</text>
    </g>
  </g>
  <g transform="translate(36.09,72.77)">
    <g class="primitive">
      <text text-anchor="middle" dy="0.35em">C</text>
    </g>
  </g>
  <g transform="translate(41.87,27.96)">
    <g class="primitive">
      <text text-anchor="middle" dy="0.35em">D</text>
    </g>
  </g>
  <g transform="translate(8.33,91.67)">
    <g class="primitive">
      <text text-anchor="middle" dy="0.35em">E</text>
    </g>
  </g>
  <g transform="translate(35.8,8.33)">
    <g class="primitive">
      <text text-anchor="middle" dy="0.35em">F</text>
    </g>
  </g>
</g>
<g font-family="Helvetica" font-size="4" fill="#000000" id="img-fd6566f5-9">
  <g transform="translate(50,0)">
    <g class="primitive">
      <text text-anchor="middle" dy="0.35em"></text>
    </g>
  </g>
</g>
</svg>
