<?xml version="1.0" encoding="UTF-8"?>
<svg xmlns="http://www.w3.org/2000/svg"
     xmlns:xlink="http://www.w3.org/1999/xlink"
     version="1.2"
     width="200mm" height="200mm" viewBox="0 0 200 200"
     stroke="none"
     fill="#000000"
     stroke-width="0.3"
     font-size="3.88"
>
<defs>
  <marker id="arrow" markerWidth="15" markerHeight="7" refX="5" refY="3.5" orient="auto" markerUnits="strokeWidth">
    <path d="M0,0 L15,3.5 L0,7 z" stroke="context-stroke" fill="context-stroke"/>
  </marker>
</defs>
<g fill="#000000" fill-opacity="0.000" id="img-eab87f52-1">
  <g transform="translate(100,100)">
    <path d="M-100,-100 L100,-100 100,100 -100,100  z" class="primitive"/>
  </g>
</g>
<g stroke-width="1.34" stroke="#D3D3D3" id="img-eab87f52-2">
</g>
<g stroke-width="1.34" stroke="#D3D3D3" id="img-eab87f52-3">
  <g transform="translate(98.47,65.78)">
    <path fill="none" d="M-12.52,-40.22 L12.52,40.22 " class="primitive"/>
  </g>
  <g transform="translate(46.11,25.35)">
    <path fill="none" d="M-20.37,4.77 L20.37,-4.77 " class="primitive"/>
  </g>
  <g transform="translate(28.56,78.07)">
    <path fill="none" d="M-9.56,-36.81 L9.56,36.81 " class="primitive"/>
  </g>
  <g transform="translate(146.81,150.22)">
    <path fill="none" d="M-23.82,-21.59 L23.82,21.59 " class="primitive"/>
  </g>
  <g transform="translate(75.37,127.4)">
    <path fill="none" d="M-23.69,2.93 L23.69,-2.93 " class="primitive"/>
  </g>
</g>
<g fill="#D3D3D3" id="img-eab87f52-4">
</g>
<g fill="#D3D3D3" id="img-eab87f52-5">
  <g transform="translate(111.76,108.49)">
    <path d="M1.95,-3.34 L1.55,4.98 -3.5,-1.65  z" class="primitive"/>
  </g>
  <g transform="translate(69.03,19.98)">
    <path d="M-3.19,-2.18 L5.08,-1.19 -1.89,3.37  z" class="primitive"/>
  </g>
  <g transform="translate(38.78,117.41)">
    <path d="M2.1,-3.24 L1.31,5.05 -3.41,-1.81  z" class="primitive"/>
  </g>
  <g transform="translate(172.56,173.57)">
    <path d="M-0.02,-3.86 L3.87,3.51 -3.85,0.36  z" class="primitive"/>
  </g>
  <g transform="translate(101.66,124.15)">
    <path d="M-2.94,-2.51 L5.18,-0.64 -2.24,3.15  z" class="primitive"/>
  </g>
</g>
<g font-size="4" fill="#000000" id="img-eab87f52-6">
</g>
<g stroke-width="0" stroke="#000000" stroke-opacity="0.000" id="img-eab87f52-7">
  <g transform="translate(83.18,16.67)" fill="#ADD8E6">
    <circle cx="0" cy="0" r="8.94" class="primitive"/>
  </g>
  <g transform="translate(16.67,32.25)" fill="#A6DED0">
    <circle cx="0" cy="0" r="8.94" class="primitive"/>
  </g>
  <g transform="translate(116.08,122.37)" fill="#9EE3BB">
    <circle cx="0" cy="0" r="8.94" class="primitive"/>
  </g>
  <g transform="translate(42.43,131.48)" fill="#97E8A6">
    <circle cx="0" cy="0" r="8.94" class="primitive"/>
  </g>
  <g transform="translate(183.33,183.33)" fill="#90EE90">
    <circle cx="0" cy="0" r="8.94" class="primitive"/>
  </g>
</g>
<g font-family="Helvetica" font-size="4" fill="#000000" id="img-eab87f52-8">
  <g transform="translate(83.18,16.67)">
    <g class="primitive">
      <text text-anchor="middle" dy="0.35em">Smoking</text>
    </g>
  </g>
  <g transform="translate(16.67,32.25)">
    <g class="primitive">
      <text text-anchor="middle" dy="0.35em">Unhealthy Lifestyle</text>
    </g>
  </g>
  <g transform="translate(116.08,122.37)">
    <g class="primitive">
      <text text-anchor="middle" dy="0.35em">Cholesterol</text>
    </g>
  </g>
  <g transform="translate(42.43,131.48)">
    <g class="primitive">
      <text text-anchor="middle" dy="0.35em">Weight</text>
    </g>
  </g>
  <g transform="translate(183.33,183.33)">
    <g class="primitive">
      <text text-anchor="middle" dy="0.35em">Cardiac Arrest</text>
    </g>
  </g>
</g>
<g font-family="Helvetica" font-size="4" fill="#000000" id="img-eab87f52-9">
  <g transform="translate(100,0)">
    <g class="primitive">
      <text text-anchor="middle" dy="0.35em"></text>
    </g>
  </g>
</g>
</svg>
